<svg width="63" height="62" viewBox="0 0 63 62" fill="none" xmlns="http://www.w3.org/2000/svg">
<g clip-path="url(#clip0_412_971)">
<path d="M17.7711 36.0774H10.0141C8.94301 36.0774 8.07483 35.2253 8.07483 34.174C8.07483 33.1228 8.94301 32.2707 10.0141 32.2707H15.8318V20.8506H10.0141C8.94301 20.8506 8.07483 19.9985 8.07483 18.9473C8.07483 17.896 8.94301 17.0439 10.0141 17.0439H17.7711C18.8422 17.0439 19.7103 17.896 19.7103 18.9473V34.174C19.7103 35.2253 18.8422 36.0774 17.7711 36.0774Z" fill="white"/>
<path d="M31.3459 36.0774H27.4674C25.3253 36.0774 23.5889 34.373 23.5889 32.2707V20.8506C23.5889 18.7483 25.3253 17.0439 27.4674 17.0439H33.2851C34.3562 17.0439 35.2244 17.896 35.2244 18.9473C35.2244 19.9985 34.3562 20.8506 33.2851 20.8506H27.4674V24.6573H31.3459C33.4879 24.6573 35.2244 26.3616 35.2244 28.464V32.2707C35.2244 34.373 33.4879 36.0774 31.3459 36.0774ZM27.4674 28.464V32.2707H31.3459V28.464H27.4674Z" fill="white"/>
<path d="M46.8599 36.0774H42.9814C40.8394 36.0774 39.1029 34.373 39.1029 32.2707V20.8506C39.1029 18.7483 40.8394 17.0439 42.9814 17.0439H46.8599C49.0019 17.0439 50.7384 18.7483 50.7384 20.8506V32.2707C50.7384 34.373 49.0019 36.0774 46.8599 36.0774ZM42.9814 20.8506V32.2707H46.8599V20.8506H42.9814Z" fill="white"/>
<path d="M17.7711 28.4644H10.0141C8.94301 28.4644 8.07483 27.6123 8.07483 26.5611C8.07483 25.5098 8.94301 24.6577 10.0141 24.6577H17.7711C18.8422 24.6577 19.7103 25.5098 19.7103 26.5611C19.7103 27.6123 18.8422 28.4644 17.7711 28.4644Z" fill="white"/>
<path d="M31.3459 51.3044C13.9469 51.3044 0.317871 44.6161 0.317871 36.0777C0.474708 32.8171 2.1878 29.8196 4.94105 27.9885C5.78608 27.341 7.00599 27.4884 7.6657 28.3178C8.32541 29.1472 8.17524 30.3445 7.33021 30.992C5.55979 32.1386 4.40885 34.0063 4.19638 36.0777C4.19638 41.4794 15.3471 47.4978 31.3459 47.4978C32.417 47.4978 33.2852 48.3499 33.2852 49.4011C33.2852 50.4523 32.417 51.3044 31.3459 51.3044Z" fill="white"/>
<path d="M37.1636 51.038C36.0926 51.0884 35.1827 50.2773 35.1313 49.226C35.0799 48.1748 35.9064 47.2817 36.9775 47.2313C49.2452 46.0779 58.4954 41.2777 58.4954 36.0777C58.283 34.0063 57.132 32.1386 55.3616 30.992C54.5177 30.3445 54.3683 29.148 55.028 28.3197C55.6878 27.4914 56.9068 27.3448 57.7508 27.9923C60.5047 29.821 62.2183 32.8178 62.3739 36.0777C62.3739 43.4817 52.0843 49.6333 37.3498 51.0304L37.1636 51.038Z" fill="white"/>
<path d="M25.5282 57.0143C24.4571 57.0162 23.5874 56.1655 23.5855 55.1144C23.5845 54.6076 23.7896 54.1213 24.1552 53.7634L28.6039 49.4009L24.1552 45.0384C23.397 44.2942 23.397 43.0875 24.1552 42.3433C24.9135 41.5991 26.143 41.5991 26.9012 42.3433L32.719 48.0533C33.4772 48.7956 33.4788 50.0008 32.7225 50.745C32.7213 50.7462 32.7202 50.7473 32.719 50.7485L26.9012 56.4585C26.5369 56.8153 26.0429 57.0152 25.5282 57.0143Z" fill="white"/>
<path d="M56.5562 17.0441C53.3431 17.0441 50.7384 14.4876 50.7384 11.334C50.7384 8.18045 53.3431 5.62402 56.5562 5.62402C59.7693 5.62402 62.3739 8.18045 62.3739 11.334C62.3739 14.4876 59.7693 17.0441 56.5562 17.0441ZM56.5562 9.43071C55.4851 9.43071 54.6169 10.2828 54.6169 11.334C54.6169 12.3853 55.4851 13.2374 56.5562 13.2374C57.6272 13.2374 58.4954 12.3853 58.4954 11.334C58.4954 10.2828 57.6272 9.43071 56.5562 9.43071Z" fill="white"/>
</g>
<defs>
<clipPath id="clip0_412_971">
<rect width="62.0561" height="60.9069" fill="white" transform="translate(0.317871 0.865723)"/>
</clipPath>
</defs>
</svg>
