<svg width="63" height="64" viewBox="0 0 63 64" fill="none" xmlns="http://www.w3.org/2000/svg">
<g clip-path="url(#clip0_534_116)">
<path d="M45.8101 22.96C45.3141 22.96 44.8362 22.6613 44.6244 22.1573C44.3428 21.4827 44.6399 20.6987 45.2961 20.4027L58.0706 14.6667L31.6018 2.78667L5.13297 14.6667L17.9076 20.4027C18.5637 20.696 18.8608 21.4827 18.5792 22.1573C18.2951 22.8347 17.5278 23.144 16.8794 22.848L1.37939 15.888C0.90664 15.6773 0.601807 15.1973 0.601807 14.6667C0.601807 14.136 0.90664 13.656 1.37939 13.4453L31.0877 0.112C31.4158 -0.0373333 31.7878 -0.0373333 32.1159 0.112L61.8242 13.4453C62.297 13.656 62.6018 14.136 62.6018 14.6667C62.6018 15.1973 62.297 15.6773 61.8242 15.888L46.3242 22.848C46.1589 22.9253 45.9806 22.96 45.8101 22.96Z" fill="#4E4E4E"/>
<path d="M31.6018 64.0002C31.4261 64.0002 31.2505 63.9628 31.0877 63.8882L1.37939 50.5548C0.90664 50.3442 0.601807 49.8642 0.601807 49.3335V14.6668C0.601807 13.9308 1.18047 13.3335 1.89347 13.3335C2.60647 13.3335 3.18514 13.9308 3.18514 14.6668V48.4588L31.6018 61.2108L60.0185 48.4588V14.6668C60.0185 13.9308 60.5971 13.3335 61.3101 13.3335C62.0231 13.3335 62.6018 13.9308 62.6018 14.6668V49.3335C62.6018 49.8642 62.297 50.3442 61.8242 50.5548L32.1159 63.8882C31.9531 63.9628 31.7775 64.0002 31.6018 64.0002Z" fill="#4E4E4E"/>
<path d="M31.6018 64.0003C30.8888 64.0003 30.3102 63.403 30.3102 62.667V44.0003C30.3102 43.2643 30.8888 42.667 31.6018 42.667C32.3148 42.667 32.8935 43.2643 32.8935 44.0003V62.667C32.8935 63.403 32.3148 64.0003 31.6018 64.0003Z" fill="#4E4E4E"/>
<path d="M31.6018 45.3335C31.421 45.3335 31.235 45.2935 31.0671 45.2135L16.8587 38.5468C16.3963 38.3308 16.1018 37.8562 16.1018 37.3335C16.1018 36.8108 16.3963 36.3362 16.8587 36.1202L31.0671 29.4535C31.4055 29.2935 31.7981 29.2935 32.1366 29.4535L46.3449 36.1202C46.8073 36.3362 47.1018 36.8108 47.1018 37.3335C47.1018 37.8562 46.8073 38.3308 46.3449 38.5468L32.1366 45.2135C31.9686 45.2935 31.7826 45.3335 31.6018 45.3335ZM20.5141 37.3335L31.6018 42.5362L42.6895 37.3335L31.6018 32.1308L20.5141 37.3335Z" fill="#4E4E4E"/>
<path d="M45.8101 38.6668C45.0971 38.6668 44.5185 38.0695 44.5185 37.3335V22.1922L31.6018 16.1335L18.6851 22.1922V37.3335C18.6851 38.0695 18.1065 38.6668 17.3935 38.6668C16.6805 38.6668 16.1018 38.0695 16.1018 37.3335V21.3335C16.1018 20.8108 16.3963 20.3362 16.8587 20.1202L31.0671 13.4535C31.4055 13.2935 31.7981 13.2935 32.1366 13.4535L46.3449 20.1202C46.8073 20.3362 47.1018 20.8108 47.1018 21.3335V37.3335C47.1018 38.0695 46.5231 38.6668 45.8101 38.6668Z" fill="#4E4E4E"/>
<path d="M31.6018 32.0002C30.8888 32.0002 30.3102 31.4028 30.3102 30.6668V14.6668C30.3102 13.9308 30.8888 13.3335 31.6018 13.3335C32.3148 13.3335 32.8935 13.9308 32.8935 14.6668V30.6668C32.8935 31.4028 32.3148 32.0002 31.6018 32.0002Z" fill="#4E4E4E"/>
</g>
<defs>
<clipPath id="clip0_534_116">
<rect width="62" height="64" fill="white" transform="translate(0.601807)"/>
</clipPath>
</defs>
</svg>
