<svg width="43" height="43" viewBox="0 0 43 43" fill="none" xmlns="http://www.w3.org/2000/svg">
<path d="M8.11687 21.5001H21.4509V8.16675" stroke="black" stroke-width="2" stroke-miterlimit="10" stroke-linecap="round" stroke-linejoin="round"/>
<path d="M41.4502 21.5C41.4502 32.5453 32.4949 41.5 21.4509 41.5C10.4049 41.5 1.4502 32.5453 1.4502 21.5C1.4502 10.4527 10.4049 1.5 21.4509 1.5C32.4949 1.5 41.4502 10.4527 41.4502 21.5Z" stroke="black" stroke-width="2" stroke-miterlimit="10" stroke-linecap="round" stroke-linejoin="round"/>
<path d="M21.4509 31.4973V34.8306V31.4973Z" stroke="black" stroke-width="2" stroke-miterlimit="10" stroke-linecap="round" stroke-linejoin="round"/>
<path d="M31.4482 21.498H34.7829H31.4482Z" stroke="black" stroke-width="2" stroke-miterlimit="10" stroke-linecap="round" stroke-linejoin="round"/>
<path d="M28.5195 28.5693L30.8762 30.926L28.5195 28.5693Z" stroke="black" stroke-width="2" stroke-miterlimit="10" stroke-linecap="round" stroke-linejoin="round"/>
<path d="M12.0241 12.072L14.3801 14.4287L12.0241 12.072Z" stroke="black" stroke-width="2" stroke-miterlimit="10" stroke-linecap="round" stroke-linejoin="round"/>
<path d="M28.5195 14.4286L30.8762 12.0713L28.5195 14.4286Z" stroke="black" stroke-width="2" stroke-miterlimit="10" stroke-linecap="round" stroke-linejoin="round"/>
<path d="M12.0241 30.926L14.3801 28.5693L12.0241 30.926Z" stroke="black" stroke-width="2" stroke-miterlimit="10" stroke-linecap="round" stroke-linejoin="round"/>
</svg>
