<svg width="51" height="51" viewBox="0 0 51 51" fill="none" xmlns="http://www.w3.org/2000/svg">
<path d="M41.4502 25.5001C41.4502 34.3344 34.2888 41.5 25.452 41.5C16.6152 41.5 9.4502 34.3344 9.4502 25.5001C9.4502 16.6622 16.6152 9.5 25.452 9.5C34.2888 9.5 41.4502 16.662 41.4502 25.5001Z" stroke="#EF5B5C" stroke-width="2" stroke-miterlimit="10" stroke-linecap="round" stroke-linejoin="round"/>
<path d="M45.4502 25.502C45.4502 36.5446 36.4986 45.5 25.4521 45.5C14.4057 45.5 5.4502 36.5446 5.4502 25.502C5.4502 14.4554 14.4056 5.5 25.4521 5.5C36.4987 5.5 45.4502 14.4554 45.4502 25.502Z" stroke="#EF5B5C" stroke-width="2" stroke-miterlimit="10" stroke-linecap="round" stroke-linejoin="round"/>
<path d="M21.1855 29.4974C21.1855 31.7089 22.9767 33.5 25.1812 33.5C27.3927 33.5 29.1838 31.7089 29.1838 29.4974C29.1838 27.2895 27.3927 25.4984 25.1812 25.4984H25.1864M25.1864 25.4984C22.9767 25.4984 21.1855 23.7072 21.1855 21.499M25.1864 25.4984C22.9767 25.4984 21.1855 23.7071 21.1855 21.499M21.1855 21.499C21.1855 19.2913 22.9767 17.5 25.1864 17.5M21.1855 21.499C21.1855 19.2911 22.9767 17.5 25.1864 17.5M25.1864 17.5C27.3927 17.5 29.1838 19.2911 29.1838 21.499C29.1838 19.2913 27.3927 17.5 25.1864 17.5Z" stroke="#EF5B5C" stroke-width="2" stroke-miterlimit="10" stroke-linecap="round" stroke-linejoin="round"/>
<path d="M25.4502 14.5V36.5" stroke="#EF5B5C" stroke-width="2" stroke-linecap="round" stroke-linejoin="round"/>
</svg>
