<svg width="60" height="61" viewBox="0 0 60 61" fill="none" xmlns="http://www.w3.org/2000/svg">
<g clip-path="url(#clip0_534_127)">
<path d="M30.0056 0C13.4373 0 0.00561523 13.6555 0.00561523 30.5C0.00561523 47.3445 13.4373 61 30.0056 61C46.574 61 60.0056 47.3445 60.0056 30.5C59.9871 13.6634 46.5662 0.018864 30.0056 0ZM30.0056 58.9667C14.5417 58.9667 2.00562 46.2216 2.00562 30.5C2.00562 14.7784 14.5417 2.03333 30.0056 2.03333C45.4695 2.03333 58.0056 14.7784 58.0056 30.5C57.988 46.2141 45.4622 58.9488 30.0056 58.9667Z" fill="#EF5B5C"/>
<path d="M30.0056 5.0835C16.1985 5.0835 5.00562 16.4629 5.00562 30.5002C5.00562 44.5374 16.1985 55.9168 30.0056 55.9168C43.8127 55.9168 55.0056 44.5374 55.0056 30.5002C54.99 16.4694 43.8064 5.09938 30.0056 5.0835ZM30.0056 53.8835C17.303 53.8835 7.00562 43.4145 7.00562 30.5002C7.00562 17.5858 17.303 7.11683 30.0056 7.11683C42.7083 7.11683 53.0056 17.5858 53.0056 30.5002C52.9915 43.4086 42.7024 53.8691 30.0056 53.8835Z" fill="#EF5B5C"/>
<path d="M44.7336 15.5262C44.4152 15.2035 43.9245 15.1365 43.5334 15.3624L25.6803 25.7211C25.6696 25.7286 25.6647 25.7405 25.6535 25.7469C25.5392 25.8467 25.4323 25.9554 25.3337 26.0721C25.3273 26.083 25.3156 26.0885 25.3088 26.0994L15.1164 44.25C14.8932 44.6481 14.9596 45.1485 15.278 45.4727C15.5968 45.7963 16.089 45.8638 16.4806 45.637L34.3307 35.2782C34.3415 35.2708 34.3464 35.2588 34.3576 35.2524C34.4719 35.1526 34.5788 35.0439 34.6774 34.9272C34.6838 34.9163 34.6955 34.9108 34.7023 34.8999L44.8947 16.7523C45.1198 16.3537 45.0539 15.8508 44.7336 15.5262ZM18.6696 42.0245L26.3957 28.2683L32.2057 34.1697L18.6696 42.0245ZM33.6154 32.7365L27.8156 26.8396L41.3464 18.9847L33.6154 32.7365Z" fill="#EF5B5C"/>
<path d="M14.0057 29.4834H10.0057C9.45349 29.4834 9.00574 29.9386 9.00574 30.5001C9.00574 31.0615 9.45349 31.5167 10.0057 31.5167H14.0057C14.558 31.5167 15.0057 31.0615 15.0057 30.5001C15.0057 29.9386 14.558 29.4834 14.0057 29.4834Z" fill="#EF5B5C"/>
<path d="M50.0056 29.4834H46.0056C45.4534 29.4834 45.0056 29.9386 45.0056 30.5001C45.0056 31.0615 45.4534 31.5167 46.0056 31.5167H50.0056C50.5579 31.5167 51.0056 31.0615 51.0056 30.5001C51.0056 29.9386 50.5579 29.4834 50.0056 29.4834Z" fill="#EF5B5C"/>
<path d="M30.0057 15.2499C30.5579 15.2499 31.0057 14.7947 31.0057 14.2332V10.1666C31.0057 9.60512 30.5579 9.1499 30.0057 9.1499C29.4534 9.1499 29.0057 9.60512 29.0057 10.1666V14.2332C29.0057 14.7947 29.4534 15.2499 30.0057 15.2499Z" fill="#EF5B5C"/>
<path d="M30.0057 45.75C29.4534 45.75 29.0057 46.2052 29.0057 46.7667V50.8333C29.0057 51.3948 29.4534 51.85 30.0057 51.85C30.5579 51.85 31.0057 51.3948 31.0057 50.8333V46.7667C31.0057 46.2052 30.5579 45.75 30.0057 45.75Z" fill="#EF5B5C"/>
</g>
<defs>
<clipPath id="clip0_534_127">
<rect width="60" height="61" fill="white" transform="translate(0.00561523)"/>
</clipPath>
</defs>
</svg>
