<svg width="44" height="43" viewBox="0 0 44 43" fill="none" xmlns="http://www.w3.org/2000/svg">
<g clip-path="url(#clip0_412_980)">
<path d="M7.04504 0.208496H2.06365C1.37594 0.208496 0.818359 0.766072 0.818359 1.45386V6.5183C0.818359 7.2061 1.37585 7.76367 2.06373 7.76367C2.75152 7.76367 3.3091 7.2061 3.3091 6.5183V2.69923H7.04512C7.73291 2.69923 8.29049 2.14166 8.29049 1.45386C8.29041 0.766072 7.73283 0.208496 7.04504 0.208496Z" fill="white"/>
<path d="M42.0805 0.208496H37.0991C36.4113 0.208496 35.8538 0.766072 35.8538 1.45386C35.8538 2.14166 36.4113 2.69923 37.0991 2.69923H40.8352V6.5183C40.8352 7.2061 41.3927 7.76367 42.0805 7.76367C42.7683 7.76367 43.3259 7.2061 43.3259 6.5183V1.45386C43.3259 0.766072 42.7683 0.208496 42.0805 0.208496Z" fill="white"/>
<path d="M7.04488 40.2256H3.30885V36.4065C3.30885 35.7187 2.75128 35.1611 2.06348 35.1611C1.37569 35.1611 0.818115 35.7187 0.818115 36.4065V41.4709C0.818115 42.1587 1.37561 42.7163 2.06348 42.7163H7.04488C7.73267 42.7163 8.29024 42.1587 8.29024 41.4709C8.29024 40.7831 7.73267 40.2256 7.04488 40.2256Z" fill="white"/>
<path d="M42.0805 35.1611C41.3927 35.1611 40.8352 35.7187 40.8352 36.4065V40.2256H37.0991C36.4113 40.2256 35.8538 40.7831 35.8538 41.4709C35.8538 42.1587 36.4113 42.7163 37.0991 42.7163H42.0805C42.7683 42.7163 43.3259 42.1587 43.3259 41.4709V36.4065C43.3259 35.7187 42.7683 35.1611 42.0805 35.1611Z" fill="white"/>
<path d="M40.0408 10.4251L22.6962 0.376291C22.3101 0.152564 21.8337 0.152564 21.4476 0.376291L4.096 10.425C3.71349 10.6466 3.47473 11.0593 3.47473 11.5018C3.47473 11.5043 3.47498 11.5068 3.47498 11.5092V31.434C3.47498 31.8807 3.71773 32.2988 4.10863 32.5188L21.4477 42.5605C21.6345 42.6687 21.8567 42.7282 22.072 42.7282C22.2968 42.7282 22.5165 42.6646 22.6964 42.5605L40.0284 32.5187C40.0313 32.5171 40.0341 32.5154 40.037 32.5138C40.4387 32.2239 40.6552 31.9804 40.6613 31.449C40.6614 31.444 40.6618 31.4391 40.6618 31.4342V11.5093C40.6618 11.5068 40.662 11.5043 40.662 11.5019C40.662 11.0591 40.4231 10.6463 40.0408 10.4251ZM20.8266 39.3222L7.22138 31.4396L17.7101 25.4247C18.3068 25.0825 18.5131 24.3215 18.1708 23.7249C17.8288 23.1282 17.0677 22.922 16.471 23.2641L5.96547 29.2843V13.6544L20.8266 22.1891V39.3222ZM22.072 20.0321L7.21956 11.4982L22.072 2.8931L36.9244 11.4982L22.072 20.0321ZM38.1792 29.2843L27.6729 23.2641C27.0763 22.922 26.3152 23.1281 25.9731 23.7248C25.6308 24.3215 25.8371 25.0824 26.4338 25.4246L36.9225 31.4395L23.3172 39.322V22.1891L38.1791 13.6544V29.2843H38.1792Z" fill="white"/>
</g>
<defs>
<clipPath id="clip0_412_980">
<rect width="42.5199" height="42.5198" fill="white" transform="translate(0.812012 0.208496)"/>
</clipPath>
</defs>
</svg>
