<svg width="78" height="55" viewBox="0 0 78 55" fill="none" xmlns="http://www.w3.org/2000/svg">
<path d="M52.6629 17.3475C51.2454 15.9575 49.3849 15.1879 47.4069 15.1791V7.87929C47.4069 5.54765 46.3665 3.25712 44.6235 1.75321C43.156 0.486639 41.3548 -0.0638156 39.5513 0.201718C31.5295 1.38428 24.3748 1.38428 16.3535 0.201718C14.5494 -0.0644032 12.7488 0.486051 11.2819 1.75263C9.53952 3.25653 8.49912 5.54706 8.49912 7.87929V15.1791C7.43405 15.1844 6.40187 15.4106 5.43314 15.8483C4.86507 16.1044 4.61304 16.7723 4.86918 17.3404C5.12531 17.9085 5.79385 18.1611 6.36134 17.9044C7.08451 17.5777 7.85996 17.4221 8.66185 17.4362C8.91505 17.4415 9.16413 17.465 9.40793 17.5055C9.42555 17.509 9.44318 17.512 9.46139 17.5149C11.9611 17.9608 13.8815 20.2202 13.8815 22.8925V36.7173C13.8815 38.5632 15.383 40.0647 17.2294 40.0647H38.676C40.5218 40.0647 42.0234 38.5632 42.0234 36.7173V22.8925C42.0234 19.9417 44.365 17.4937 47.2436 17.4362C48.6905 17.4091 50.0528 17.9479 51.0838 18.9583C52.1154 19.9693 52.6835 21.3211 52.6835 22.7651C52.6835 24.8282 51.4733 26.7252 49.6011 27.5975C49.2034 27.7826 48.9496 28.1815 48.9496 28.6197V43.6195C48.9496 45.4788 47.4374 46.9909 45.5781 46.9909H10.3267C8.46799 46.9909 6.95527 45.4788 6.95527 43.6195V28.6197C6.95527 28.1815 6.70148 27.7832 6.30377 27.5975C4.43152 26.7252 3.22193 24.8282 3.22193 22.7651C3.22193 21.9608 3.39582 21.1889 3.73948 20.471C4.00796 19.9088 3.77003 19.235 3.20783 18.9665C2.64563 18.698 1.97239 18.936 1.70392 19.4982C1.21397 20.5227 0.966064 21.6219 0.966064 22.7651C0.966064 25.4545 2.41005 27.9447 4.6994 29.2988V43.6195C4.6994 46.7225 7.22374 49.2468 10.3267 49.2468H11.3847V52.6829C11.3847 53.8848 12.3629 54.8635 13.5648 54.8635H15.3877C16.5903 54.8635 17.5684 53.8848 17.5684 52.6829V49.2468H38.3364V52.6829C38.3364 53.8848 39.3146 54.8635 40.5171 54.8635H42.34C43.5426 54.8635 44.5207 53.8848 44.5207 52.6829V49.2468H45.5781C48.6811 49.2468 51.206 46.7225 51.206 43.6195V29.2988C53.4954 27.9447 54.9394 25.4539 54.9394 22.7651C54.9394 20.7101 54.131 18.7862 52.6629 17.3475ZM39.7675 36.7173C39.7675 37.3189 39.2776 37.8089 38.676 37.8089H17.2294C16.6273 37.8089 16.1373 37.3189 16.1373 36.7173V31.9689H39.7675V36.7173ZM39.7675 22.8925V29.713H16.1373V22.8925C16.1373 19.4447 13.8591 16.4833 10.755 15.514V7.87929C10.755 6.21912 11.5216 4.52546 12.7565 3.4598C13.4373 2.87233 14.5571 2.21613 16.0245 2.4335C24.2737 3.64896 31.6311 3.64896 39.8809 2.4335C41.3484 2.21672 42.4681 2.87233 43.1495 3.46038C44.3838 4.52605 45.151 6.21912 45.151 7.87929V15.514C42.0463 16.4827 39.7675 19.4447 39.7675 22.8925ZM15.3125 52.6077H13.6406V49.2468H15.3125V52.6077ZM42.2648 52.6077H40.5923V49.2468H42.2648V52.6077Z" fill="#4E4E4E"/>
<path d="M21.9904 11.8933H21.5956V11.4985C21.5956 10.8752 21.0904 10.3706 20.4677 10.3706C19.8449 10.3706 19.3397 10.8752 19.3397 11.4985V11.8933H18.9449C18.3222 11.8933 17.817 12.3979 17.817 13.0212C17.817 13.644 18.3222 14.1492 18.9449 14.1492H19.3397V14.5439C19.3397 15.1667 19.8449 15.6719 20.4677 15.6719C21.0904 15.6719 21.5956 15.1667 21.5956 14.5439V14.1492H21.9904C22.6131 14.1492 23.1183 13.644 23.1183 13.0212C23.1183 12.3979 22.6131 11.8933 21.9904 11.8933Z" fill="#4E4E4E"/>
<path d="M36.9601 11.8933H36.5659V11.4985C36.5659 10.8752 36.0607 10.3706 35.438 10.3706C34.8147 10.3706 34.31 10.8752 34.31 11.4985V11.8933H33.9153C33.292 11.8933 32.7873 12.3979 32.7873 13.0212C32.7873 13.644 33.292 14.1492 33.9153 14.1492H34.31V14.5439C34.31 15.1667 34.8147 15.6719 35.438 15.6719C36.0607 15.6719 36.5659 15.1667 36.5659 14.5439V14.1492H36.9601C37.5834 14.1492 38.088 13.644 38.088 13.0212C38.088 12.3979 37.5834 11.8933 36.9601 11.8933Z" fill="#4E4E4E"/>
<path d="M75.5681 24.7173H68.2659V19.6328H72.2501C72.9168 19.6328 73.5437 19.3067 73.9267 18.7604C74.3091 18.2147 74.402 17.5138 74.174 16.887L71.6955 10.0577C71.4024 9.25112 70.6293 8.70947 69.771 8.70947H64.5049C63.6467 8.70947 62.8736 9.25112 62.5804 10.0583L60.1019 16.887C59.874 17.5138 59.9668 18.2147 60.3492 18.7604C60.7322 19.3067 61.3591 19.6328 62.0258 19.6328H66.01V24.7173H57.6081C56.2857 24.7173 55.2101 25.7929 55.2101 27.1153V28.4706C55.2101 29.793 56.2857 30.8686 57.6081 30.8686H57.6416V33.0258C57.6416 33.6491 58.1462 34.1537 58.7695 34.1537C59.3922 34.1537 59.8975 33.6491 59.8975 33.0258V30.8686H73.2787V38.3576H59.8975V37.5375C59.8975 36.9142 59.3922 36.4096 58.7695 36.4096C58.1462 36.4096 57.6416 36.9142 57.6416 37.5375V48.5178C57.6416 49.2886 58.1174 49.9501 58.7913 50.2244V52.9902C58.7913 54.023 59.6319 54.8636 60.6647 54.8636H62.3319C63.3647 54.8636 64.2053 54.023 64.2053 52.9902V50.359H68.5667V52.9902C68.5667 54.023 69.4073 54.8636 70.4401 54.8636H72.1073C73.1401 54.8636 73.9807 54.023 73.9807 52.9902V50.3366C74.8602 50.1986 75.5346 49.4355 75.5346 48.5178V30.8686H75.5681C76.8905 30.8686 77.9661 29.793 77.9661 28.4706V27.1153C77.9661 25.7929 76.8905 24.7173 75.5681 24.7173ZM64.6512 10.9653H69.6247L71.9522 17.3769H62.3237L64.6512 10.9653ZM73.2787 40.6135V48.1031H59.8975V40.6135H73.2787ZM61.9495 52.6072H61.0471V50.359H61.9495V52.6072ZM71.7249 52.6072H70.8225V50.359H71.7249V52.6072ZM75.7102 28.4706C75.7102 28.5487 75.6462 28.6128 75.5681 28.6128H57.6081C57.53 28.6128 57.4659 28.5487 57.4659 28.4706V27.1153C57.4659 27.0366 57.53 26.9732 57.6081 26.9732H75.5681C75.6462 26.9732 75.7102 27.0366 75.7102 27.1153V28.4706Z" fill="#4E4E4E"/>
<path d="M67.3888 33.8911C68.0116 33.8911 68.5168 33.3865 68.5168 32.7632C68.5168 32.1399 68.0116 31.6353 67.3888 31.6353H65.7874C65.1647 31.6353 64.6595 32.1399 64.6595 32.7632C64.6595 33.3865 65.1647 33.8911 65.7874 33.8911H67.3888Z" fill="#4E4E4E"/>
<path d="M65.7874 43.6665H67.3888C68.0116 43.6665 68.5168 43.1619 68.5168 42.5386C68.5168 41.9153 68.0116 41.4106 67.3888 41.4106H65.7874C65.1647 41.4106 64.6595 41.9153 64.6595 42.5386C64.6595 43.1619 65.1647 43.6665 65.7874 43.6665Z" fill="#4E4E4E"/>
</svg>
