<svg width="61" height="61" viewBox="0 0 61 61" fill="none" xmlns="http://www.w3.org/2000/svg">
<path d="M53.2069 43.42H51.8631V39.4746C51.8631 29.5769 45.1694 21.2391 36.1427 18.8934V13.4916C36.1427 12.8336 35.6179 12.3002 34.9708 12.3002H32.1221V1.19141C32.1221 0.533393 31.5973 0 30.9502 0C30.303 0 29.7783 0.533393 29.7783 1.19141V12.3002H26.9296C26.2824 12.3002 25.7577 12.8336 25.7577 13.4916V18.8934C16.731 21.2391 10.0373 29.5769 10.0373 39.4746V43.42H8.69348C8.04625 43.42 7.52161 43.9534 7.52161 44.6114V50.4963C7.52161 51.1543 8.04625 51.6877 8.69348 51.6877H22.2645C22.2558 51.849 22.2514 52.0106 22.2514 52.1723C22.2514 57.0399 26.1537 61 30.9502 61C35.7467 61 39.649 57.0399 39.649 52.1723C39.649 52.0106 39.6446 51.8489 39.6359 51.6877H53.2068C53.8539 51.6877 54.3787 51.1543 54.3787 50.4963V44.6114C54.3788 43.9534 53.8541 43.42 53.2069 43.42ZM28.1016 14.683H33.7989V18.4296C32.8738 18.3018 31.9301 18.2344 30.9712 18.2344H30.9295C29.9704 18.2344 29.0268 18.3018 28.1017 18.4296V14.683H28.1016ZM12.381 39.4746C12.381 29.0766 20.7017 20.6172 30.9293 20.6172H30.9711C41.1986 20.6172 49.5194 29.0765 49.5194 39.4746V43.42H12.381V39.4746ZM37.3054 52.1723C37.3054 55.726 34.4545 58.6172 30.9503 58.6172C27.4461 58.6172 24.5952 55.726 24.5952 52.1723C24.5952 52.0104 24.6012 51.8487 24.6129 51.6877H37.2877C37.2994 51.8487 37.3054 52.0104 37.3054 52.1723ZM52.035 49.3049H9.86536V45.8028H52.035V49.3049Z" fill="#4E4E4E"/>
</svg>
