<svg width="51" height="51" viewBox="0 0 51 51" fill="none" xmlns="http://www.w3.org/2000/svg">
<path d="M39.3552 40.44C39.0672 40.3195 38.8102 40.145 38.5937 39.9295C38.1697 39.504 37.9062 38.919 37.9062 38.2715V37.7325C39.6962 36.535 40.9522 33.748 40.9522 30.499C40.9522 27.738 38.7127 25.5 35.9512 25.5C33.1907 25.5 30.9517 27.738 30.9517 30.499C30.9517 33.748 32.2072 36.535 33.9962 37.7325V38.2715C33.9962 38.9195 33.7347 39.5045 33.3107 39.9295C33.0937 40.145 32.8352 40.319 32.5482 40.44L25.9517 43.1705L19.3562 40.44C19.0682 40.3195 18.8097 40.145 18.5932 39.9295C18.1692 39.504 17.9077 38.919 17.9077 38.2715V37.7325C19.6962 36.537 20.9502 33.748 20.9502 30.499C20.9502 27.738 18.7127 25.5 15.9497 25.5C13.1902 25.5 10.9507 27.738 10.9507 30.499C10.9507 33.748 12.2062 36.537 13.9942 37.7325V38.2715C13.9942 38.9195 13.7327 39.5045 13.3087 39.9295C13.0917 40.145 12.8332 40.319 12.5457 40.44L5.9502 43.1705V45.4995H45.9502V43.1705L39.3552 40.44Z" stroke="black" stroke-width="2" stroke-miterlimit="10" stroke-linecap="round" stroke-linejoin="round"/>
<path d="M30.2062 24.174C29.8457 24.024 29.5237 23.809 29.2532 23.5385C28.7227 23.008 28.3957 22.274 28.3957 21.4645V20.791C30.6332 19.2955 32.2007 15.811 32.2007 11.751C32.2007 8.2985 29.4032 5.5 25.9507 5.5C22.4987 5.5 19.7012 8.299 19.7012 11.751C19.7012 15.811 21.2702 19.2955 23.5062 20.791V21.4645C23.5062 22.274 23.1792 23.008 22.6487 23.5385C22.3762 23.809 22.0547 24.0245 21.6962 24.174L17.7102 25.8245C19.6017 26.537 20.9502 28.358 20.9502 30.499H30.9512C30.9512 28.358 32.2992 26.537 34.1907 25.824L30.2062 24.174Z" stroke="black" stroke-width="2" stroke-miterlimit="10" stroke-linecap="round" stroke-linejoin="round"/>
</svg>
