<svg width="43" height="43" viewBox="0 0 43 43" fill="none" xmlns="http://www.w3.org/2000/svg">
<g clip-path="url(#clip0_412_996)">
<path d="M41.3181 30.1883H40.0724V26.4513C40.0724 25.7633 39.5147 25.2056 38.8267 25.2056H37.581V21.4685C37.581 20.7805 37.0233 20.2228 36.3353 20.2228H35.0896V16.4857C35.0896 15.7977 34.5319 15.24 33.8439 15.24H32.5982V11.5029C32.5982 10.8149 32.0405 10.2572 31.3525 10.2572H28.8611V6.52011C28.8611 5.83215 28.3034 5.27441 27.6154 5.27441H14.9923C14.3044 5.27441 13.7466 5.83215 13.7466 6.52011V10.2572H11.2552C10.5673 10.2572 10.0095 10.8149 10.0095 11.5029V15.24H8.76385C8.07589 15.24 7.51815 15.7977 7.51815 16.4857V20.2228H6.27245C5.58449 20.2228 5.02675 20.7805 5.02675 21.4685V25.2056H3.78105C3.09309 25.2056 2.53535 25.7633 2.53535 26.4513V30.1883H1.28965C0.601687 30.1883 0.0439453 30.7461 0.0439453 31.434V36.4168C0.0439453 37.1048 0.601687 37.6625 1.28965 37.6625C4.26645 37.6625 39.634 37.6625 41.3181 37.6625C42.0061 37.6625 42.5638 37.1048 42.5638 36.4168V31.434C42.5638 30.7461 42.0061 30.1883 41.3181 30.1883ZM32.5982 17.7314V20.2228H27.0007L26.5791 17.7314H32.5982ZM30.1068 12.7486V15.24H26.1575L25.7358 12.7486C27.4019 12.7486 26.2409 12.7486 30.1068 12.7486ZM22.5496 7.76581H26.3697V10.2572H22.5496V7.76581ZM16.238 7.76581H20.0582V10.2572H16.238V7.76581ZM12.5009 12.7486C16.3671 12.7486 15.2088 12.7486 16.8719 12.7486L16.4503 15.24H12.5009V12.7486ZM10.0095 17.7314H16.0287L15.6071 20.2228H10.0095V17.7314ZM13.0774 35.1711H2.53535V32.6797H13.499L13.0774 35.1711ZM13.9205 30.1883H5.02675V27.6969H14.3422L13.9205 30.1883ZM14.7638 25.2056H7.51815V22.7142H15.1854L14.7638 25.2056ZM15.6042 35.1711L19.3987 12.7486H23.209L27.0036 35.1711H15.6042ZM27.4224 22.7142H35.0896V25.2056H27.844L27.4224 22.7142ZM28.2656 27.6969H37.581V30.1883H28.6872L28.2656 27.6969ZM40.0724 35.1711H29.5305L29.1089 32.6797H40.0724V35.1711Z" fill="white"/>
</g>
<defs>
<clipPath id="clip0_412_996">
<rect width="42.5199" height="42.5198" fill="white" transform="translate(0.0439453 0.208496)"/>
</clipPath>
</defs>
</svg>
