<svg width="51" height="51" viewBox="0 0 51 51" fill="none" xmlns="http://www.w3.org/2000/svg">
<path d="M2.4502 24.0005C2.4502 28.1423 5.8072 31.4993 9.9496 31.4993C14.0914 31.4993 17.4508 28.1423 17.4508 24.0005H2.4502Z" stroke="black" stroke-width="2" stroke-miterlimit="10" stroke-linecap="round" stroke-linejoin="round"/>
<path d="M9.95084 10.5012L2.45264 24.0006L17.4502 23.9982L9.95084 10.5012Z" stroke="black" stroke-width="2" stroke-miterlimit="10" stroke-linecap="round" stroke-linejoin="round"/>
<path d="M9.95081 10.5012V24.0006V10.5012Z" stroke="black" stroke-width="2" stroke-miterlimit="10" stroke-linecap="round" stroke-linejoin="round"/>
<path d="M32.4503 24.0005C32.4503 28.1423 35.8073 31.4993 39.9491 31.4993C44.0909 31.4993 47.4503 28.1423 47.4503 24.0005H32.4503Z" stroke="black" stroke-width="2" stroke-miterlimit="10" stroke-linecap="round" stroke-linejoin="round"/>
<path d="M39.9509 10.5012L32.4503 24.0006L47.4503 23.9982L39.9509 10.5012Z" stroke="black" stroke-width="2" stroke-miterlimit="10" stroke-linecap="round" stroke-linejoin="round"/>
<path d="M39.9508 10.5012V24.0006V10.5012Z" stroke="black" stroke-width="2" stroke-miterlimit="10" stroke-linecap="round" stroke-linejoin="round"/>
<path d="M27.9507 10.5012C27.9507 12.1566 26.6067 13.5006 24.9489 13.5006C23.2935 13.5 21.9501 12.1566 21.9501 10.5012C21.9501 8.8434 23.2935 7.5 24.9489 7.5C26.6067 7.5 27.9507 8.8434 27.9507 10.5012Z" stroke="black" stroke-width="2" stroke-miterlimit="10" stroke-linecap="round" stroke-linejoin="round"/>
<path d="M26.4496 40.5006V13.5H23.4508V40.5006H15.9502V43.5H33.9508V40.5006H26.4496Z" stroke="black" stroke-width="2" stroke-miterlimit="10" stroke-linecap="round" stroke-linejoin="round"/>
<path d="M27.9508 10.5012H39.949H27.9508Z" stroke="black" stroke-width="2" stroke-miterlimit="10" stroke-linecap="round" stroke-linejoin="round"/>
<path d="M9.95081 10.5012H21.9502H9.95081Z" stroke="black" stroke-width="2" stroke-miterlimit="10" stroke-linecap="round" stroke-linejoin="round"/>
</svg>
