<svg width="52" height="52" viewBox="0 0 52 52" fill="none" xmlns="http://www.w3.org/2000/svg">
<path d="M51.2057 25.2498C51.1754 24.144 51.0735 23.0413 50.9005 21.949C49.03 10.0017 38.9768 0.679018 26.7794 0.177768C22.3028 -0.0181769 17.8547 0.990537 13.8871 3.10142L14.0205 3.23655C16.1925 5.43824 19.2876 6.36312 22.3193 5.83993C23.4416 5.64808 24.5778 5.5515 25.716 5.55119C29.3937 5.55399 33.001 6.57404 36.149 8.5014C39.297 10.4288 41.8665 13.1904 43.5805 16.4886C45.0987 19.4228 45.8922 22.6865 45.8928 25.9998C45.8969 28.9119 45.2855 31.7911 44.0998 34.4437H49.8262C50.8302 31.4888 51.2976 28.3738 51.2057 25.2498ZM31.2987 45.9189C30.6888 45.9189 30.0802 45.9773 29.4811 46.0932C27.9664 46.3822 26.4242 46.4955 24.8842 46.4309C20.0533 46.2293 15.4566 44.2667 11.9394 40.9039C10.3259 39.3666 8.96902 37.5743 7.92149 35.5968C6.48165 32.8714 5.67272 29.8495 5.55601 26.7602C5.4393 23.6709 6.01787 20.5951 7.24786 17.7661C8.3016 15.3415 9.81047 13.1477 11.6905 11.307H4.73909C1.61582 15.8792 0.0353612 21.3528 0.233717 26.9104C0.696891 40.458 11.5958 51.4417 24.9615 51.8335C29.4914 51.9764 33.9766 50.8882 37.9519 48.682C37.0769 47.8002 36.0388 47.1022 34.8971 46.6281C33.7554 46.1539 32.5325 45.9129 31.2987 45.9189Z" fill="#FD4F56"/>
<path d="M0.322932 28.3212H5.68014C5.60961 27.6942 5.55856 27.0616 5.54603 26.42C5.48728 23.6077 6.00278 20.8134 7.06016 18.2127C8.11754 15.6119 9.69396 13.2608 11.6905 11.307H4.73909C1.61582 15.8792 0.0353612 21.3528 0.233717 26.9104C0.249897 27.3844 0.281799 27.8539 0.322932 28.3212Z" fill="#FD4F56"/>
<path d="M49.8263 34.4444H44.1C45.8443 30.5301 46.3315 26.1592 45.4929 21.949H50.9005C51.0735 23.0413 51.1754 24.144 51.2057 25.2498C51.2977 28.374 50.8304 31.4892 49.8263 34.4444Z" fill="#FD4F56"/>
<path d="M49.8265 34.4443C49.0513 36.7177 47.9647 38.8693 46.5984 40.8359L46.5844 40.9037H16.5962L33.7589 17.9548H29.1021L11.9391 40.9037H6.65149L7.58855 36.0056L7.92172 35.5967L22.5335 17.7661H1.54257C2.30258 15.4712 3.37873 13.2967 4.73909 11.307L44.791 11.307L43.7526 16.2651L43.5807 16.4893L29.7726 34.4443H49.8265Z" fill="#FD4F56"/>
<path d="M29.1021 17.9548L22.2034 27.1813H14.8169L22.5334 17.7657L29.1021 17.9548Z" fill="#FD4F56"/>
</svg>
